<svg width="150" height="150" viewBox="0 0 150 150" fill="none" xmlns="http://www.w3.org/2000/svg">
<g clip-path="url(#clip0_1_19)">
<path d="M79.9453 29.3448C80.0809 25.4122 81.9938 22.1221 85.9861 21.3911C88.5655 20.9188 91.2487 21.5453 93.8055 20.9213C97.3528 20.0556 100.815 17.7022 102.9 14.7128C104.195 12.8568 105.175 10.7558 105.618 8.53779C105.785 7.70412 105.618 10.2381 105.618 11.0883C105.618 12.1357 105.054 14.9743 105.686 15.9209C105.831 16.1391 106.943 15.2712 107.196 15.2162C108.348 14.9658 109.72 15.1378 110.887 15.149C114.683 15.1855 117.162 17.6637 120.754 18.3372C123.806 18.9094 127.456 19.4756 129.412 16.6592C129.706 16.2359 129.849 15.271 130.016 16.3572C130.328 18.3832 129.954 20.5767 128.976 22.3644C127.193 25.6252 123.099 28.236 119.286 28.4274C119.904 28.4312 120.83 28.4608 121.257 28.5729C123.586 29.1837 125.976 31.3732 126.828 33.6236C129.089 39.5927 124.849 47.9357 129.798 52.9875C129.977 53.1704 132.61 55.1077 131.543 55.0011C129.806 54.8273 128.549 53.3891 127.231 52.4002C123.251 49.4156 120.108 48.071 115.25 48.071C112.168 48.071 108.3 48.4105 105.686 46.5C104.276 45.47 100.391 45.0398 99.5 43.5C98.569 41.8919 81.8847 29.8989 79.9453 29.3448Z" fill="#830000"/>
<ellipse cx="75" cy="75.5" rx="26" ry="36.5" fill="#BA5353"/>
<ellipse cx="74.5" cy="105" rx="28.5" ry="9" fill="#E29CA5"/>
<ellipse cx="74.5" cy="105" rx="28.5" ry="9" fill="#B1303F"/>
<ellipse cx="75.5" cy="60" rx="27.5" ry="9" fill="#E29CA5"/>
<ellipse cx="75.5" cy="60" rx="27.5" ry="9" fill="#B1303F"/>
<path d="M22.5 107L46.3689 97H101.459L127 107L146 152L113.045 150.848H36.5432L3 152L22.5 107Z" fill="#C67D10"/>
<path d="M80.5 79V124L103 87.5V50L94 29H56L47 50V87.5L69 124L67.5 79L54 72.5L50.5 61.5L76 68.5L98 61.5L96 72.5L80.5 79Z" fill="#C67D10"/>
</g>
<defs>
<clipPath id="clip0_1_19">
<rect width="150" height="150" fill="white"/>
</clipPath>
</defs>
</svg>
